<svg aria-hidden="true" style="position:absolute;width:0;height:0" xmlns="http://www.w3.org/2000/svg" overflow="hidden">
    <defs>
    <symbol id="icon-phone" viewBox="0 0 10 16">
        <path d="M8.5 0H1.5C0.672848 0 0 0.672848 0 1.5V14.5C0 15.3272 0.672848 16 1.5 16H8.5C9.32715 16 10 15.3272 10 14.5V1.5C10 0.672848 9.32715 0 8.5 0ZM1.5 1H8.5C8.77588 1 9 1.22412 9 1.5V12H1V1.5C1 1.22412 1.22412 1 1.5 1ZM8.5 15H1.5C1.22412 15 1 14.7759 1 14.5V13H9V14.5C9 14.7759 8.77588 15 8.5 15Z"/>
    </symbol>
    <symbol id="icon-email" viewBox="0 0 16 12">
        <path d="M14.5 0H1.50001C0.672854 0 0 0.672853 0 1.50001V10.5C0 11.3271 0.672854 12 1.50001 12H14.5C15.3271 12 16 11.3271 16 10.5V1.50001C16 0.672853 15.3271 0 14.5 0ZM14.5 0.999994C14.5679 0.999994 14.6325 1.01409 14.6916 1.0387L8 6.83838L1.30833 1.0387C1.36742 1.01412 1.43204 0.999994 1.49998 0.999994H14.5ZM14.5 11H1.50001C1.22414 11 0.999996 10.7759 0.999996 10.5V2.09521L7.67236 7.87792C7.76661 7.95944 7.8833 7.99999 8 7.99999C8.1167 7.99999 8.23339 7.95948 8.32764 7.87792L15 2.09521V10.5C15 10.7759 14.7759 11 14.5 11Z"/>
    </symbol>
    <symbol id="icon-antena" viewBox="0 0 66 70">
        <path d="M65.3163 48.3385L46.8468 29.7337L48.8966 19.6373C49.4256 19.8438 49.9879 19.9517 50.5556 19.9558H50.5696C53.1777 19.9866 55.3169 17.8974 55.3479 15.2893C55.3788 12.6812 53.2894 10.542 50.6813 10.5111C48.0732 10.4803 45.934 12.5695 45.9031 15.1776C45.8965 15.7357 45.9888 16.2905 46.176 16.8163L35.326 18.1405L17.6276 0.35C17.4105 0.128479 17.1141 0.00247917 16.804 0C16.4977 0.00160417 16.2044 0.123521 15.9873 0.3395L12.6786 3.6295C12.2232 4.08508 12.2232 4.82358 12.6786 5.27917L14.459 7.08517C7.56162 19.7681 9.80191 35.4741 19.9703 45.7228C20.0636 45.8121 20.1718 45.8843 20.29 45.9363C20.2165 46.3311 20.1781 46.7317 20.1756 47.1333V60.6667H6.17562C2.95562 60.6705 0.346077 63.28 0.342285 66.5V68.8333C0.342285 69.4776 0.86466 70 1.50895 70H55.1756C55.8199 70 56.3423 69.4776 56.3423 68.8333V66.5C56.3385 63.28 53.729 60.6705 50.509 60.6667H36.509V54.6688C38.7021 55.1288 40.9367 55.3633 43.1776 55.3688C48.5548 55.363 53.8464 54.0225 58.5776 51.4675L60.3673 53.2677C60.5844 53.4892 60.8808 53.6152 61.191 53.6177C61.4972 53.6161 61.7905 53.4941 62.0076 53.2782L65.3163 49.9882C65.7717 49.5326 65.7717 48.7941 65.3163 48.3385ZM48.9246 13.6348C49.8383 12.726 51.3157 12.7301 52.2244 13.6437C53.1332 14.5574 53.1291 16.0348 52.2155 16.9435C51.7781 17.3785 51.1864 17.6226 50.5695 17.6225H50.5625C49.2739 17.6158 48.2345 16.5658 48.2412 15.2771C48.2445 14.6602 48.4918 14.0699 48.9291 13.6348H48.9246ZM46.1783 21.301L44.8693 27.7445L42.298 25.158L46.1783 21.301ZM44.853 19.3282L40.653 23.5037L37.4038 20.237L44.853 19.3282ZM50.509 63C52.442 63 54.009 64.567 54.009 66.5V67.6667H2.67562V66.5C2.67562 64.567 4.2426 63 6.17562 63H50.509ZM34.1756 58.3333V60.6667H22.509V58.3333H34.1756ZM22.509 56V47.1333C22.509 44.303 25.1258 42 28.3423 42C31.5588 42 34.1756 44.303 34.1756 47.1333V56H22.509ZM36.509 52.29V47.1333C36.509 43.0162 32.8456 39.6667 28.3423 39.6667C25.4306 39.622 22.7079 41.1041 21.165 43.5738C12.2887 34.2249 10.2899 20.2875 16.1805 8.82073L56.872 49.7455C50.5886 52.9419 43.3857 53.8418 36.509 52.29ZM61.2038 50.7943L59.56 49.1412L16.7923 6.11567L15.1415 4.46133L16.7923 2.81633L34.15 20.272C34.1581 20.272 34.1628 20.2872 34.171 20.293L62.8593 49.1493L61.2038 50.7943Z"/>
        <path d="M28.3528 44.3333H28.3423C26.4093 44.3304 24.84 45.895 24.837 47.8281C24.8341 49.7611 26.3988 51.3304 28.3318 51.3333H28.3423C30.2753 51.3362 31.8446 49.7716 31.8475 47.8386C31.8505 45.9055 30.2858 44.3362 28.3528 44.3333ZM29.1695 48.6605C28.9498 48.8789 28.6522 49.0012 28.3423 49C27.698 48.9966 27.1784 48.4716 27.1817 47.8273C27.1834 47.5189 27.307 47.2237 27.5256 47.0062C27.7428 46.7902 28.036 46.6683 28.3423 46.6667C28.9866 46.67 29.5062 47.195 29.5028 47.8393C29.5012 48.1477 29.3776 48.4429 29.159 48.6605H29.1695Z"/>
    </symbol>
    <symbol id="icon-clock" viewBox="0 0 76 78">
        <g clip-path="url(#clip0_75273_446)" filter="url(#filter0_d_75273_446)">
            <path d="M71.4614 33.4715C71.4576 14.9819 56.4656 -0.00373771 37.9754 6.99302e-07C19.4858 0.00373911 4.50017 14.9963 4.50391 33.4859C4.50711 48.0502 13.9252 60.9413 27.7995 65.3713C27.9319 65.413 28.0697 65.4343 28.2081 65.4338C28.4719 65.4333 28.7304 65.3628 28.9573 65.2287C29.2527 65.0541 29.4732 64.7764 29.5768 64.449L38.0315 37.6521C40.3429 37.6404 42.2068 35.7568 42.1945 33.4459C42.1827 31.1345 40.2997 29.2706 37.9883 29.2824C37.3666 29.285 36.753 29.4282 36.1944 29.7011L25.0251 18.5302C24.4707 17.9951 23.5879 18.0106 23.0528 18.5644C22.5305 19.1054 22.5305 19.962 23.0528 20.503L34.2162 31.6792C33.3596 33.4277 33.8493 35.5383 35.3895 36.7303L27.3338 62.2647C11.4135 56.4002 3.26169 38.7405 9.12618 22.8203C14.9907 6.90002 32.6503 -1.25183 48.5706 4.61266C64.4909 10.4771 72.6427 28.1374 66.7782 44.0571C63.913 51.8351 58.0261 58.1252 50.4548 61.4989L49.5842 57.3989C49.4251 56.6454 48.6844 56.1636 47.9308 56.3233C47.6931 56.3741 47.4726 56.4857 47.291 56.6475L38.8978 64.1409C38.322 64.653 38.2708 65.5347 38.7835 66.1105C38.9501 66.2974 39.1637 66.4362 39.403 66.5126L50.1188 69.9327C50.8521 70.1682 51.6377 69.765 51.8732 69.0312C51.948 68.7994 51.9603 68.5527 51.9101 68.3145L51.0545 64.2915C63.4452 59.0678 71.4902 46.918 71.4614 33.4715ZM37.9829 32.0766C38.753 32.0766 39.3779 32.7014 39.3779 33.4715C39.3779 34.2422 38.753 34.8665 37.9829 34.8665C37.2123 34.8665 36.588 34.2422 36.588 33.4715C36.588 32.7014 37.2123 32.0766 37.9829 32.0766ZM42.5774 64.5916L47.3551 60.3298L48.6737 66.543L42.5774 64.5916Z" fill="#212121"/>
            <path d="M36.5879 6.96729V9.7572C36.5879 10.5278 37.2122 11.1522 37.9828 11.1522C38.753 11.1522 39.3778 10.5278 39.3778 9.7572V6.96729C39.3778 6.19717 38.753 5.57233 37.9828 5.57233C37.2122 5.57233 36.5879 6.19717 36.5879 6.96729Z"/>
            <path d="M11.4787 32.0765C10.7081 32.0765 10.0837 32.7014 10.0837 33.4715C10.0837 34.2421 10.7081 34.8665 11.4787 34.8665H14.2686C15.0393 34.8665 15.6636 34.2421 15.6636 33.4715C15.6636 32.7014 15.0393 32.0765 14.2686 32.0765H11.4787Z"/>
            <path d="M64.4865 34.8665C65.2572 34.8665 65.8815 34.2421 65.8815 33.4715C65.8815 32.7014 65.2572 32.0765 64.4865 32.0765H61.6966C60.9265 32.0765 60.3016 32.7014 60.3016 33.4715C60.3016 34.2421 60.9265 34.8665 61.6966 34.8665H64.4865Z"/>
            </g>
            <defs>
            <filter id="filter0_d_75273_446" x="-1" y="0" width="78" height="78" filterUnits="userSpaceOnUse" color-interpolation-filters="sRGB">
            <feFlood flood-opacity="0" result="BackgroundImageFix"/>
            <feColorMatrix in="SourceAlpha" type="matrix" values="0 0 0 0 0 0 0 0 0 0 0 0 0 0 0 0 0 0 127 0" result="hardAlpha"/>
            <feOffset dy="4"/>
            <feGaussianBlur stdDeviation="2"/>
            <feComposite in2="hardAlpha" operator="out"/>
            <feColorMatrix type="matrix" values="0 0 0 0 0 0 0 0 0 0 0 0 0 0 0 0 0 0 0.25 0"/>
            <feBlend mode="normal" in2="BackgroundImageFix" result="effect1_dropShadow_75273_446"/>
            <feBlend mode="normal" in="SourceGraphic" in2="effect1_dropShadow_75273_446" result="shape"/>
            </filter>
            <clipPath id="clip0_75273_446">
            <rect width="70" height="70" fill="white" transform="translate(3)"/>
            </clipPath>
            </defs>
    </symbol>
    <symbol id="icon-diagram" viewBox="0 0 70 70">
            <g clip-path="url(#clip0_75273_456)">
            <path d="M32.6496 32.7351H34.9817V43.2296H32.6496V32.7351Z" fill="#2196F3"/>
            <path d="M41.978 37.3993H44.3101V43.2296H41.978V37.3993Z" fill="#2196F3"/>
            <path d="M23.3211 40.8975H25.6532V43.2296H23.3211V40.8975Z" fill="#2196F3"/>
            <path d="M16.3248 39.7314H18.6569V43.2295H16.3248V39.7314Z" fill="#2196F3"/>
            <path d="M3.49817 61.8865H59.4689C61.4007 61.8865 62.967 60.3202 62.967 58.3883V53.7241C62.967 51.7923 61.4007 50.2259 59.4689 50.2259H58.3028V21.1469L64.9262 14.8725C66.4635 15.6303 68.3242 15.1702 69.3302 13.7816C70.3369 12.3935 70.1957 10.4821 68.9966 9.25684C67.7975 8.03157 65.8901 7.8488 64.4798 8.82412C63.0701 9.80001 62.569 11.6499 63.2933 13.2037L58.3028 17.9345V15.2443C58.3028 13.3124 56.7365 11.7461 54.8046 11.7461H8.16239C6.23054 11.7461 4.66422 13.3124 4.66422 15.2443V50.2259H3.49817C1.56632 50.2259 0 51.7923 0 53.7241V58.3883C0 60.3202 1.56632 61.8865 3.49817 61.8865ZM66.4652 10.58C67.1091 10.58 67.6313 11.1021 67.6313 11.7461C67.6313 12.39 67.1091 12.9121 66.4652 12.9121C65.8212 12.9121 65.2991 12.39 65.2991 11.7461C65.2991 11.1021 65.8212 10.58 66.4652 10.58ZM6.99634 15.2443C6.99634 14.6003 7.51844 14.0782 8.16239 14.0782H54.8046C55.4486 14.0782 55.9707 14.6003 55.9707 15.2443V20.1414L53.6386 22.3573V17.5764C53.6386 16.9324 53.1165 16.4103 52.4725 16.4103H10.4945C9.85055 16.4103 9.32845 16.9324 9.32845 17.5764V46.7278C9.32845 47.3717 9.85055 47.8938 10.4945 47.8938H52.4725C53.1165 47.8938 53.6386 47.3717 53.6386 46.7278V25.5651L55.9707 23.3554V50.2259H6.99634V15.2443ZM17.4908 30.403C15.9131 30.3984 14.5279 31.4495 14.1083 32.9703C13.6886 34.491 14.3383 36.104 15.6951 36.9091C17.0513 37.7142 18.7793 37.5121 19.9129 36.4149L23.9662 38.4487C24.4371 38.6844 25.0081 38.5739 25.3583 38.1805L33.9745 28.4871L42.4443 34.8338C42.8987 35.1743 43.5329 35.1378 43.9452 34.7478L51.3065 27.7748V45.5617H11.6606V18.7424H51.3065V24.5619L43.0564 32.3747L34.5154 25.9716C34.0303 25.6084 33.3476 25.6767 32.9445 26.1294L24.2099 35.9571L20.9446 34.3242C20.9685 34.1841 20.9833 34.0429 20.989 33.9012C20.989 31.9693 19.4227 30.403 17.4908 30.403ZM18.6569 33.9012C18.6569 34.5451 18.1348 35.0672 17.4908 35.0672C16.8469 35.0672 16.3248 34.5451 16.3248 33.9012C16.3248 33.2572 16.8469 32.7351 17.4908 32.7351C18.1348 32.7351 18.6569 33.2572 18.6569 33.9012ZM25.6532 52.5581H37.3138V53.7241C37.3138 54.3681 36.7917 54.8902 36.1477 54.8902H26.8193C26.1753 54.8902 25.6532 54.3681 25.6532 53.7241V52.5581ZM2.33211 53.7241C2.33211 53.0802 2.85422 52.5581 3.49817 52.5581H23.3211V53.7241C23.3211 55.656 24.8874 57.2223 26.8193 57.2223H36.1477C38.0796 57.2223 39.6459 55.656 39.6459 53.7241V52.5581H59.4689C60.1128 52.5581 60.6349 53.0802 60.6349 53.7241V58.3883C60.6349 59.0323 60.1128 59.5544 59.4689 59.5544H3.49817C2.85422 59.5544 2.33211 59.0323 2.33211 58.3883V53.7241Z" fill="#212121"/>
            </g>
            <defs>
            <clipPath id="clip0_75273_456">
            <rect width="70" height="70" fill="white"/>
            </clipPath>
            </defs>
    
    </symbol>
    <symbol id="icon-astronaut" viewBox="0 0 70 70">
            <path d="M69.9433 9.89637C69.8056 9.47513 69.4416 9.16724 69.0018 9.10298L64.8228 8.49512L62.9526 4.70809C62.5606 3.91005 61.2527 3.91005 60.8608 4.70809L58.9906 8.49512L54.8114 9.10312C54.3716 9.16724 54.0076 9.47418 53.8687 9.89651C53.7323 10.3188 53.8453 10.7831 54.1639 11.0924L57.1891 14.0407L56.4752 18.2034C56.4005 18.6409 56.5802 19.0831 56.9384 19.3445C57.3012 19.6082 57.7748 19.6407 58.168 19.4331L61.9061 17.4672L65.6442 19.4331C65.8146 19.5229 66.0024 19.5672 66.1879 19.5672C66.4294 19.5672 66.671 19.4925 66.874 19.3443C67.2333 19.0831 67.413 18.6408 67.3372 18.2033L66.6233 14.0405L69.6485 11.0923C69.9654 10.7819 70.0798 10.3187 69.9433 9.89637ZM64.5556 12.7991C64.2815 13.0662 64.1555 13.4536 64.2208 13.8316L64.6385 16.2688L62.4499 15.1184C62.2795 15.0286 62.0929 14.9843 61.9061 14.9843C61.7195 14.9843 61.534 15.0286 61.3624 15.1184L59.1736 16.2688L59.5913 13.8316C59.6567 13.4536 59.5306 13.0675 59.2565 12.7991L57.4843 11.0724L59.932 10.7166C60.3124 10.6617 60.6402 10.4226 60.8106 10.0783L61.9049 7.86169L62.9992 10.0783C63.1696 10.4225 63.4974 10.6617 63.8778 10.7166L66.3255 11.0724L64.5556 12.7991Z" fill="#2196F3"/>
            <path d="M57.167 44.8923H54.8336V47.2257H57.167V44.8923Z" fill="#2196F3"/>
            <path d="M57.167 49.5591H54.8336V51.8925H57.167V49.5591Z" fill="#2196F3"/>
            <path d="M59.5004 47.2257H57.167V49.5591H59.5004V47.2257Z" fill="#2196F3"/>
            <path d="M54.8337 47.2257H52.5003V49.5591H54.8337V47.2257Z" fill="#2196F3"/>
            <path d="M49.0002 57.7259H46.6668V60.0593H49.0002V57.7259Z" fill="#2196F3"/>
            <path d="M49.0002 62.3926H46.6668V64.726H49.0002V62.3926Z" fill="#2196F3"/>
            <path d="M51.3337 60.0593H49.0002V62.3927H51.3337V60.0593Z" fill="#2196F3"/>
            <path d="M46.6668 60.0593H44.3334V62.3927H46.6668V60.0593Z" fill="#2196F3"/>
            41
            <path d="M35 53.0592H32.6666V55.3926H35V53.0592Z" fill="#2196F3"/>
            <path d="M35 57.7259H32.6666V60.0593H35V57.7259Z" fill="#2196F3"/>
            <path d="M37.3334 55.3925H35V57.7259H37.3334V55.3925Z" fill="#2196F3"/>
            <path d="M32.6666 55.3925H30.3332V57.7259H32.6666V55.3925Z" fill="#2196F3"/>
            <path d="M12.833 13.3918H10.4996V15.7252H12.833V13.3918Z" fill="#2196F3"/>
            <path d="M12.833 18.0587H10.4996V20.3921H12.833V18.0587Z" fill="#2196F3"/>
            <path d="M15.1663 15.7252H12.8329V18.0586H15.1663V15.7252Z" fill="#2196F3"/>
            <path d="M10.4996 15.7252H8.1662V18.0586H10.4996V15.7252Z" fill="#2196F3"/>
            <path d="M54.0635 30.9738C53.4347 30.1256 52.5119 29.5797 51.4642 29.4326C50.4118 29.2833 49.3734 29.5597 48.5334 30.2026L45.7952 32.3014L45.794 32.3026L41.6428 35.4025L38.6724 34.2194C43.9691 31.8429 47.6711 26.545 47.6711 20.3942C47.6711 12.0314 40.8401 5.22736 32.4436 5.22736C24.047 5.22736 17.2161 12.0314 17.2161 20.3942C17.2161 23.4253 18.1226 26.2439 19.6662 28.6158L13.6204 28.5633C13.6168 28.5633 13.6134 28.5633 13.6099 28.5633C13.5911 28.5633 13.5761 28.5726 13.5586 28.5738C13.4431 28.5785 13.3298 28.6018 13.2191 28.6415C13.1911 28.652 13.162 28.6579 13.1352 28.6706C13.1212 28.6765 13.1071 28.6776 13.0932 28.6846L6.02075 32.1764C6.01952 32.1764 6.01843 32.1764 6.01843 32.1775L1.8766 34.1692C1.83107 34.1891 1.78445 34.2159 1.73892 34.2462C0.0880191 35.3452 -0.474314 37.5036 0.429958 39.2676C0.911763 40.2056 1.73195 40.8963 2.73999 41.2124C3.12856 41.3337 3.52518 41.3933 3.91949 41.3933C4.55305 41.3933 5.18074 41.2381 5.75578 40.9313L8.79154 39.3167L13.7441 36.7593L16.7122 36.7418L4.80844 48.5884C4.80735 48.5896 4.80612 48.5896 4.80489 48.5907L1.87647 51.5074C1.18466 52.1958 0.8043 53.1092 0.8043 54.0835C0.8043 55.0565 1.18466 55.9723 1.87647 56.6619C2.587 57.3689 3.52149 57.7235 4.45598 57.7235C5.3917 57.7235 6.32495 57.3689 7.03782 56.6619L9.91251 53.7988L13.7206 50.9556L15.6912 52.9179L11.8375 56.7551C11.8364 56.7564 11.8352 56.7564 11.834 56.7574L8.90556 59.6741C8.21375 60.3625 7.8334 61.2759 7.8334 62.2502C7.8334 63.2233 8.21375 64.139 8.90556 64.8286C9.6161 65.5356 10.5518 65.8903 11.4863 65.8903C12.4208 65.8903 13.3565 65.5356 14.0681 64.8286L16.9977 61.912L21.6842 57.2453C21.6854 57.244 21.6854 57.2429 21.6865 57.2417L23.8951 55.0542L23.8869 55.046C23.9008 55.032 23.9207 55.0272 23.9347 55.0122L35.2353 42.6349L42.8281 43.7152C42.8829 43.7234 42.9377 43.7269 42.9925 43.7269C43.1338 43.7269 43.2702 43.6931 43.402 43.6429C43.4406 43.629 43.4743 43.6102 43.5106 43.5916C43.5526 43.5706 43.5968 43.559 43.6366 43.5322L50.6659 38.8655C50.6916 38.848 50.7055 38.8199 50.73 38.8013C50.758 38.7792 50.793 38.7699 50.8186 38.7453L53.5999 36.1401C55.0471 34.7841 55.2466 32.5628 54.0635 30.9738ZM4.66024 38.8722C4.28111 39.0752 3.85058 39.1159 3.43878 38.9854C3.03039 38.8582 2.69912 38.5793 2.50538 38.2025C2.15305 37.5165 2.35718 36.6811 2.97433 36.2296L5.84793 34.8471L6.53974 36.8689L6.83027 37.7182L4.66024 38.8722ZM12.3102 34.874L8.92333 36.6241L8.36456 34.9907L7.96328 33.8169L12.3967 31.6282L12.3102 34.874ZM45.3402 20.3919C45.3402 22.4009 44.8607 24.2957 44.03 25.9907L34.8832 21.8362C34.7875 20.5821 34.1366 19.4842 33.1589 18.8005L36.3614 8.16849C41.5626 9.82295 45.3402 14.6752 45.3402 20.3919ZM19.5519 20.3919C19.5519 13.3159 25.3363 7.55831 32.446 7.55831C32.9991 7.55831 33.5403 7.60493 34.0759 7.67261L30.9433 18.0713C30.9014 18.0701 30.8617 18.0585 30.8185 18.0585C28.5597 18.0585 26.7222 19.8901 26.7222 22.1419C26.7222 24.3936 28.5597 26.2254 30.8185 26.2254C32.3375 26.2254 33.65 25.3866 34.3582 24.1591L42.8073 27.9975C40.4564 31.1615 36.6938 33.2255 32.4459 33.2255C25.3363 33.2255 19.5519 27.4679 19.5519 20.3919ZM32.5814 22.1419C32.5814 23.1068 31.7903 23.8919 30.8185 23.8919C29.8467 23.8919 29.0556 23.1068 29.0556 22.1419C29.0556 21.1771 29.8467 20.3919 30.8185 20.3919C31.7903 20.3919 32.5814 21.1771 32.5814 22.1419ZM5.39183 55.0074C4.87503 55.5196 4.03843 55.5185 3.52286 55.0087C3.2743 54.7601 3.13785 54.4324 3.13785 54.0835C3.13785 53.7358 3.2743 53.4079 3.52286 53.1618L5.6274 51.0652L7.48941 52.9191L5.39183 55.0074ZM12.4222 63.1743C11.9054 63.6865 11.0677 63.6877 10.552 63.1755C10.3034 62.927 10.1669 62.5993 10.1669 62.2503C10.1669 61.9027 10.3034 61.5748 10.552 61.3287L12.6579 59.231L13.5388 60.1072L14.5211 61.0849L12.4222 63.1743ZM20.0383 55.5862C20.0371 55.5873 20.036 55.5873 20.0348 55.5885L16.1742 59.4385L15.2933 58.5623L14.311 57.5846L18.168 53.7451C18.168 53.7451 18.168 53.7451 18.168 53.744C18.1692 53.7428 18.1703 53.7428 18.1715 53.7417C18.259 53.6542 18.3139 53.5492 18.3676 53.4454C18.3828 53.415 18.4119 53.3893 18.4248 53.3579C18.461 53.2681 18.4667 53.1713 18.4808 53.0767C18.4878 53.0229 18.5112 52.9729 18.5112 52.9179C18.5112 52.8397 18.4831 52.764 18.4669 52.6869C18.4529 52.6169 18.4529 52.5456 18.426 52.4781C18.3817 52.3684 18.3058 52.2716 18.2265 52.177C18.2044 52.1513 18.1962 52.1186 18.1717 52.0942C18.1717 52.0942 18.1717 52.0942 18.1705 52.0942C18.1692 52.0931 18.1692 52.0906 18.1681 52.0895L14.6529 48.5895C14.6156 48.5521 14.5677 48.537 14.5257 48.5055C14.4639 48.4577 14.4045 48.4134 14.3356 48.3795C14.2691 48.3468 14.2014 48.327 14.1314 48.3082C14.0568 48.2872 13.9845 48.2709 13.9063 48.265C13.835 48.2604 13.7686 48.2674 13.6975 48.2756C13.6193 48.2849 13.5459 48.2954 13.47 48.3199C13.3964 48.3432 13.3312 48.3793 13.2635 48.4179C13.2203 48.4424 13.1714 48.4506 13.1305 48.4809L9.25133 51.3767L7.28077 49.4143L12.5285 44.1946L22.0674 53.576L20.0383 55.5862ZM34.9544 40.2372C34.9207 40.2325 34.8891 40.2454 34.8553 40.2431C34.7701 40.2384 34.6885 40.2443 34.6033 40.2582C34.5369 40.2699 34.4739 40.2827 34.4108 40.3049C34.3362 40.3306 34.2685 40.3656 34.1996 40.4075C34.1343 40.4472 34.0748 40.4892 34.0176 40.5417C33.9896 40.5661 33.9558 40.5779 33.9301 40.6058L23.6527 51.862L14.185 42.5506L20.3825 36.3859C20.8387 35.9309 20.841 35.1923 20.386 34.735C20.1562 34.5052 19.854 34.392 19.5519 34.3932V34.3921L14.6984 34.4212L14.7591 30.9049L21.5492 30.9633C24.3166 33.7937 28.176 35.5589 32.446 35.5589C33.4027 35.5589 34.3361 35.4598 35.2448 35.2905C35.3323 35.3605 35.4186 35.4317 35.5284 35.476L40.7995 37.5761L41.1331 39.235L41.5228 41.1717L34.9544 40.2372ZM43.7944 40.6268L43.1096 37.2189L46.2736 34.8564L47.102 35.9554L48.3445 37.605L43.7944 40.6268ZM52.0055 34.4341L50.1726 36.1514L48.1356 33.4471L49.9544 32.0529C50.2939 31.7917 50.7221 31.6854 51.1421 31.7403C51.5644 31.7997 51.9378 32.0203 52.1921 32.3621C52.6658 33.0003 52.5853 33.8905 52.0055 34.4341Z" fill="#212121"/>
            <path d="M29.7545 40.5651L25.0668 35.8984C24.613 35.4446 23.8755 35.4446 23.4205 35.8984L18.734 40.5651C18.5147 40.7856 18.391 41.0819 18.391 41.3922C18.391 41.7026 18.5135 42.0001 18.734 42.2194L23.4205 46.8861C23.648 47.1124 23.9468 47.2256 24.2443 47.2256C24.5418 47.2256 24.8404 47.1124 25.0668 46.8861L29.7545 42.2194C29.9738 42.0001 30.0987 41.7026 30.0987 41.3922C30.0987 41.0819 29.9749 40.7844 29.7545 40.5651ZM24.2443 44.4128L21.2109 41.3922L24.2443 38.3717L27.2788 41.3922L24.2443 44.4128Z" fill="#212121"/>
            <path d="M37.5468 11.0923L36.9833 13.358C37.1385 13.3966 40.7844 14.3462 40.7844 18.0586H43.1178C43.1177 13.6461 39.4742 11.5718 37.5468 11.0923Z" fill="#212121"/>
            <path d="M43.1178 20.3919H40.7844V22.7253H43.1178V20.3919Z" fill="#212121"/>
        
    </symbol>

    <symbol id="icon-instagram" viewBox="0 0 20 20">
        <g clip-path="url(#clip0_75273_603)">
            <path d="M19.9804 5.88005C19.9336 4.81738 19.7617 4.0868 19.5156 3.45374C19.2616 2.78176 18.8709 2.18014 18.359 1.68002C17.8589 1.1721 17.2533 0.777435 16.5891 0.527447C15.9524 0.281274 15.2256 0.109427 14.163 0.0625732C13.0924 0.0117516 12.7525 0 10.0371 0C7.32173 0 6.98185 0.0117516 5.91521 0.0586052C4.85253 0.105459 4.12195 0.277459 3.48904 0.523479C2.81692 0.777435 2.2153 1.16814 1.71517 1.68002C1.20726 2.18014 0.812743 2.78573 0.562603 3.44992C0.31643 4.0868 0.144583 4.81341 0.0977294 5.87609C0.0469078 6.9467 0.0351562 7.28658 0.0351562 10.002C0.0351562 12.7173 0.0469078 13.0572 0.0937614 14.1239C0.140615 15.1865 0.312615 15.9171 0.558787 16.5502C0.812743 17.2221 1.20726 17.8238 1.71517 18.3239C2.2153 18.8318 2.82088 19.2265 3.48508 19.4765C4.12195 19.7226 4.84856 19.8945 5.91139 19.9413C6.97788 19.9883 7.31791 19.9999 10.0333 19.9999C12.7487 19.9999 13.0885 19.9883 14.1552 19.9413C15.2179 19.8945 15.9484 19.7226 16.5813 19.4765C17.9254 18.9568 18.9881 17.8941 19.5078 16.5502C19.7538 15.9133 19.9258 15.1865 19.9727 14.1239C20.0195 13.0572 20.0313 12.7173 20.0313 10.002C20.0313 7.28658 20.0273 6.9467 19.9804 5.88005ZM18.1794 14.0457C18.1364 15.0225 17.9723 15.5499 17.8356 15.9015C17.4995 16.7728 16.808 17.4643 15.9367 17.8004C15.5851 17.9372 15.0538 18.1012 14.0809 18.1441C13.026 18.1911 12.7096 18.2027 10.0411 18.2027C7.37255 18.2027 7.05221 18.1911 6.00113 18.1441C5.02438 18.1012 4.49693 17.9372 4.1453 17.8004C3.71171 17.6402 3.31704 17.3862 2.9967 17.0541C2.6646 16.7298 2.41065 16.3391 2.2504 15.9055C2.11365 15.5539 1.94959 15.0225 1.90671 14.0497C1.8597 12.9948 1.8481 12.6783 1.8481 10.0097C1.8481 7.34122 1.8597 7.02087 1.90671 5.96995C1.94959 4.99319 2.11365 4.46575 2.2504 4.11412C2.41065 3.68038 2.6646 3.28586 3.00067 2.96536C3.32483 2.63327 3.71553 2.37931 4.14927 2.21921C4.5009 2.08247 5.03231 1.9184 6.0051 1.87537C7.05999 1.82851 7.37652 1.81676 10.0449 1.81676C12.7174 1.81676 13.0337 1.82851 14.0848 1.87537C15.0616 1.9184 15.589 2.08247 15.9407 2.21921C16.3742 2.37931 16.7689 2.63327 17.0893 2.96536C17.4213 3.28967 17.6753 3.68038 17.8356 4.11412C17.9723 4.46575 18.1364 4.99701 18.1794 5.96995C18.2263 7.02484 18.238 7.34122 18.238 10.0097C18.238 12.6783 18.2263 12.9908 18.1794 14.0457Z"/>
            <path d="M10.0371 4.8642C7.20074 4.8642 4.89941 7.16537 4.89941 10.0019C4.89941 12.8385 7.20074 15.1396 10.0371 15.1396C12.8737 15.1396 15.1749 12.8385 15.1749 10.0019C15.1749 7.16537 12.8737 4.8642 10.0371 4.8642ZM10.0371 13.3346C8.19702 13.3346 6.70442 11.8422 6.70442 10.0019C6.70442 8.16165 8.19702 6.66921 10.0371 6.66921C11.8774 6.66921 13.3698 8.16165 13.3698 10.0019C13.3698 11.8422 11.8774 13.3346 10.0371 13.3346Z" />
            <path d="M16.5775 4.6611C16.5775 5.32346 16.0404 5.86052 15.3779 5.86052C14.7155 5.86052 14.1785 5.32346 14.1785 4.6611C14.1785 3.99858 14.7155 3.46167 15.3779 3.46167C16.0404 3.46167 16.5775 3.99858 16.5775 4.6611Z"/>
            </g>
            <defs>
            <clipPath id="clip0_75273_603">
            <rect width="20" height="20" fill="white"/>
            </clipPath>
            </defs>
    </symbol>
    <symbol id="icon-twitter" viewBox="0 0 20 20">
        <g clip-path="url(#clip0_75273_597)">
            <path d="M20 3.79875C19.2563 4.125 18.4637 4.34125 17.6375 4.44625C18.4875 3.93875 19.1363 3.14125 19.4412 2.18C18.6488 2.6525 17.7738 2.98625 16.8412 3.1725C16.0887 2.37125 15.0162 1.875 13.8462 1.875C11.5763 1.875 9.74875 3.7175 9.74875 5.97625C9.74875 6.30125 9.77625 6.61375 9.84375 6.91125C6.435 6.745 3.41875 5.11125 1.3925 2.6225C1.03875 3.23625 0.83125 3.93875 0.83125 4.695C0.83125 6.115 1.5625 7.37375 2.6525 8.1025C1.99375 8.09 1.3475 7.89875 0.8 7.5975C0.8 7.61 0.8 7.62625 0.8 7.6425C0.8 9.635 2.22125 11.29 4.085 11.6712C3.75125 11.7625 3.3875 11.8062 3.01 11.8062C2.7475 11.8062 2.4825 11.7913 2.23375 11.7362C2.765 13.36 4.2725 14.5538 6.065 14.5925C4.67 15.6838 2.89875 16.3412 0.98125 16.3412C0.645 16.3412 0.3225 16.3263 0 16.285C1.81625 17.4563 3.96875 18.125 6.29 18.125C13.835 18.125 17.96 11.875 17.96 6.4575C17.96 6.27625 17.9538 6.10125 17.945 5.9275C18.7588 5.35 19.4425 4.62875 20 3.79875Z" />
            </g>
            <defs>
            <clipPath id="clip0_75273_597">
            <rect width="20" height="20" fill="white"/>
            </clipPath>
            </defs>
    </symbol>

    <symbol id="icon-linkedin" viewBox="0 0 20 20">
        <g clip-path="url(#clip0_75273_587)">
            <path d="M19.995 20V19.9992H20V12.6642C20 9.07587 19.2275 6.31171 15.0325 6.31171C13.0158 6.31171 11.6625 7.41837 11.11 8.46754H11.0517V6.64671H7.07416V19.9992H11.2158V13.3875C11.2158 11.6467 11.5458 9.96337 13.7017 9.96337C15.8258 9.96337 15.8575 11.95 15.8575 13.4992V20H19.995Z"/>
            <path d="M0.330017 6.64746H4.47668V20H0.330017V6.64746Z"/>
            <path d="M2.40167 0C1.07583 0 0 1.07583 0 2.40167C0 3.7275 1.07583 4.82583 2.40167 4.82583C3.7275 4.82583 4.80333 3.7275 4.80333 2.40167C4.8025 1.07583 3.72667 0 2.40167 0V0Z"/>
            </g>
            <defs>
            <clipPath id="clip0_75273_587">
            <rect width="20" height="20" fill="white"/>
            </clipPath>
            </defs>
    </symbol>
    <symbol id="icon-facebook" viewBox="0 0 20 20">
        <g clip-path="url(#clip0_75273_565)">
            <path d="M13.3309 3.32083H15.1567V0.140833C14.8417 0.0975 13.7584 0 12.4967 0C9.86422 0 8.06088 1.65583 8.06088 4.69917V7.5H5.15588V11.055H8.06088V20H11.6226V11.0558H14.4101L14.8526 7.50083H11.6217V5.05167C11.6226 4.02417 11.8992 3.32083 13.3309 3.32083Z"/>
            </g>
            <defs>
            <clipPath id="clip0_75273_565">
            <rect width="20" height="20" fill="white"/>
            </clipPath>
            </defs>
    </symbol>

    <symbol id="icon-logo" viewBox="0 0 106 52.3">
        <g clip-path="url(#clip0_75273_668)">
            <path fill-rule="evenodd" clip-rule="evenodd" d="M38 7.08698L45.0078 13.7211L32 13.7134V45.9007H66V33.594L73 40.2208V7.08698H38ZM65.6924 32.8153L45.8226 14.0049H65.6924V32.8153ZM59.5231 41.1925H37.3801V19.5449H38.9453V39.7267H59.5231V41.1925ZM42.6089 50.1861L41.791 51.8707L40.9731 50.1861H40.2871L41.481 52.4322V53.7408H42.1011V52.4322L43.2925 50.1861H42.6089ZM43.6367 53.7408L43.9248 52.9131H45.3018L45.5923 53.7408H46.2368L44.8916 50.1861H44.3374L42.9946 53.7408H43.6367ZM44.6133 50.9405L45.1284 52.4151H44.0981L44.6133 50.9405ZM47.8701 52.3297C47.7806 52.4664 47.7358 52.6169 47.7358 52.7813C47.7358 53.0808 47.8408 53.3241 48.0508 53.5113C48.2624 53.6968 48.5439 53.7896 48.8955 53.7896C49.2471 53.7896 49.5498 53.6944 49.8037 53.504L50.0039 53.7408H50.6924L50.1699 53.1231C50.375 52.8432 50.4775 52.4843 50.4775 52.0464H49.9624C49.9624 52.2857 49.9128 52.503 49.8135 52.6983L49.1274 51.8878L49.3691 51.712C49.54 51.5883 49.6629 51.4646 49.7378 51.3409C49.8127 51.2156 49.8501 51.0788 49.8501 50.9307C49.8501 50.7061 49.7671 50.5181 49.6011 50.3668C49.4367 50.2138 49.2251 50.1373 48.9663 50.1373C48.6798 50.1373 48.452 50.2186 48.2827 50.3814C48.1134 50.5425 48.0288 50.7623 48.0288 51.0406C48.0288 51.1545 48.0557 51.2725 48.1094 51.3946C48.1647 51.5167 48.2616 51.6648 48.3999 51.8389C48.1362 52.0277 47.9596 52.1913 47.8701 52.3297ZM49.4741 53.1158C49.3 53.2492 49.1128 53.316 48.9126 53.316C48.7352 53.316 48.5936 53.2647 48.4878 53.1622C48.382 53.0596 48.3291 52.9262 48.3291 52.7618C48.3291 52.5714 48.4268 52.4021 48.6221 52.254L48.6978 52.2003L49.4741 53.1158ZM48.8369 51.5411C48.6693 51.3344 48.5854 51.1627 48.5854 51.0259C48.5854 50.9071 48.6196 50.8087 48.688 50.7305C48.7563 50.6524 48.8483 50.6133 48.9639 50.6133C49.0713 50.6133 49.16 50.6467 49.23 50.7134C49.3 50.7785 49.335 50.8575 49.335 50.9503C49.335 51.0902 49.2845 51.205 49.1836 51.2945L49.1079 51.3555L48.8369 51.5411ZM54.623 53.4722C54.8672 53.259 55.0072 52.9628 55.043 52.5836H54.4277C54.3952 52.8375 54.3179 53.0189 54.1958 53.128C54.0737 53.237 53.8914 53.2916 53.6489 53.2916C53.3836 53.2916 53.1818 53.1907 53.0435 52.9888C52.9067 52.787 52.8384 52.494 52.8384 52.1099V51.795C52.8416 51.4158 52.9149 51.1285 53.0581 50.9332C53.203 50.7362 53.4097 50.6378 53.6782 50.6378C53.9093 50.6378 54.0843 50.6947 54.2031 50.8087C54.3236 50.921 54.3984 51.1049 54.4277 51.3604H55.043C55.0039 50.9714 54.8647 50.6703 54.6255 50.4571C54.3862 50.2439 54.0705 50.1373 53.6782 50.1373C53.3869 50.1373 53.1297 50.2064 52.9067 50.3448C52.6854 50.4831 52.5153 50.6801 52.3965 50.9356C52.2777 51.1911 52.2183 51.4866 52.2183 51.8218V52.1539C52.2231 52.481 52.2842 52.7683 52.4014 53.0157C52.5186 53.2631 52.6846 53.4543 52.8994 53.5894C53.1159 53.7229 53.3657 53.7896 53.6489 53.7896C54.0542 53.7896 54.3789 53.6838 54.623 53.4722ZM58.2534 52.9742C58.3739 52.7105 58.4341 52.4045 58.4341 52.0562V51.8585C58.4325 51.5118 58.3706 51.2082 58.2485 50.9478C58.1265 50.6858 57.9531 50.4856 57.7285 50.3472C57.5055 50.2073 57.2492 50.1373 56.9595 50.1373C56.6698 50.1373 56.4126 50.2081 56.188 50.3497C55.965 50.4896 55.7917 50.6923 55.668 50.9576C55.5459 51.2229 55.4849 51.5289 55.4849 51.8755V52.0757C55.4865 52.4159 55.5483 52.7162 55.6704 52.9766C55.7941 53.237 55.9683 53.438 56.1929 53.5797C56.4191 53.7196 56.6763 53.7896 56.9644 53.7896C57.2557 53.7896 57.5129 53.7196 57.7358 53.5797C57.9604 53.438 58.133 53.2362 58.2534 52.9742ZM57.5918 50.9649C57.7415 51.1749 57.8164 51.4768 57.8164 51.8707V52.0562C57.8164 52.4566 57.7423 52.761 57.5942 52.9693C57.4478 53.1776 57.2378 53.2818 56.9644 53.2818C56.6942 53.2818 56.4826 53.1752 56.3296 52.962C56.1782 52.7488 56.1025 52.4468 56.1025 52.0562V51.8511C56.1058 51.4686 56.1823 51.1732 56.332 50.9649C56.4834 50.7549 56.6925 50.65 56.9595 50.65C57.2329 50.65 57.4437 50.7549 57.5918 50.9649Z"/>
            </g>
            <defs>
            <clipPath id="clip0_75273_668">
            <rect width="106" height="52.8261" fill="white" transform="translate(0 0.0869751)"/>
            </clipPath>
            </defs>
    </symbol>
    <symbol id="icon-logo1" viewBox="0 0 106 52.3">
        <g clip-path="url(#clip0_75273_676)">
            <path fill-rule="evenodd" clip-rule="evenodd" d="M50.1136 6.0215H49.977C49.7671 6.00878 49.5571 6.0037 49.3471 5.99861H49.3471H49.3269H48.8918C48.4946 5.99861 48.0898 6.00878 47.6876 6.02912C47.6573 6.02692 47.6269 6.02692 47.5966 6.02912C43.9522 6.23561 40.3817 7.14649 37.0805 8.7119L36.6479 8.92042V31.0616L37.6598 30.7183C38.5477 30.4131 39.4938 30.1385 40.4728 29.8842C43.1193 29.2048 45.8367 28.8437 48.568 28.8085V31.7176C48.2062 31.7202 47.8546 31.7303 47.503 31.7481H47.4195C45.3175 31.8634 43.2317 32.1837 41.1913 32.7043C38.6072 33.3512 36.1143 34.3226 33.7716 35.5956V7.19886C36.2047 5.77973 38.8253 4.71385 41.5556 4.03294C43.9527 3.41403 46.4169 3.09628 48.8918 3.08698H49.3193C49.8303 3.09969 50.3287 3.12258 50.7967 3.15818C52.0297 3.24475 53.2528 3.4396 54.4521 3.7405V6.60382C53.2874 6.33248 52.1032 6.15393 50.9105 6.06981C50.8863 6.06777 50.8621 6.0657 50.8379 6.06363C50.5911 6.04258 50.344 6.0215 50.1136 6.0215ZM55.1528 8.94836C55.7877 8.99667 56.4455 9.01956 57.1108 9.01956C59.7125 9.01005 62.3031 8.67781 64.8239 8.03037C67.4068 7.38094 69.8986 6.40875 72.2411 5.13654V33.0272C69.8067 34.4455 67.1853 35.5113 64.4546 36.1931C62.0571 36.8097 59.5931 37.1265 57.1184 37.1365C55.2433 37.1517 53.3737 36.9313 51.553 36.4805V8.40926C51.983 8.50844 52.4257 8.59998 52.876 8.67627C53.6147 8.80087 54.3939 8.89242 55.1528 8.94836ZM69.3471 9.16451L68.3352 9.50526C67.4042 9.81804 66.4657 10.0978 65.5221 10.347C62.7749 11.0529 59.9514 11.4151 57.1158 11.4252C56.4556 11.4252 55.8485 11.4074 55.2616 11.3692L54.4546 11.3158V31.4048V34.0927L55.1477 34.1537C55.7903 34.2096 56.4531 34.2376 57.1209 34.2376C59.3544 34.2281 61.5781 33.9403 63.7412 33.3806C65.5223 32.9339 67.2552 32.3112 68.9145 31.5218L69.3471 31.3133V9.16451Z"/>
            <path d="M35.7371 45.2994C35.5917 45.1485 35.4163 45.0301 35.2224 44.9516C35.0284 44.8732 34.8203 44.8366 34.6114 44.8442C34.3888 44.8413 34.1678 44.8828 33.9613 44.9663C33.7719 45.0417 33.5998 45.1551 33.4553 45.2994C33.3125 45.4442 33.2013 45.6175 33.129 45.808C33.0497 46.0077 33.0101 46.2211 33.0126 46.4361V50.2301C33.0036 50.4975 33.0546 50.7634 33.1619 51.0083C33.2514 51.2027 33.3807 51.376 33.5413 51.5168C33.693 51.6445 33.871 51.7366 34.0625 51.7864C34.2469 51.8382 34.4376 51.8648 34.6291 51.8652C34.8404 51.8673 35.0495 51.8222 35.2413 51.733C35.4309 51.65 35.6028 51.5308 35.7473 51.3821C35.8881 51.2347 36.0005 51.0622 36.0786 50.8735C36.1597 50.6822 36.201 50.4762 36.2001 50.2683V49.8436H35.2084V50.1818C35.2114 50.2973 35.1916 50.4122 35.1502 50.52C35.1179 50.6008 35.0688 50.6736 35.006 50.7336C34.9446 50.7833 34.8742 50.8204 34.7986 50.843C34.7316 50.8653 34.6617 50.8773 34.5912 50.8786C34.5026 50.8889 34.413 50.8755 34.3312 50.8398C34.2495 50.804 34.1786 50.7473 34.1257 50.6751C34.0322 50.5227 33.9864 50.3455 33.9942 50.1666V46.6294C33.988 46.4332 34.0297 46.2385 34.1156 46.0623C34.1671 45.9822 34.2399 45.9183 34.3258 45.8778C34.4117 45.8374 34.5071 45.822 34.6013 45.8334C34.6868 45.8304 34.7717 45.8482 34.8488 45.8854C34.9259 45.9226 34.9929 45.9781 35.044 46.047C35.155 46.1927 35.213 46.3722 35.2084 46.5556V46.8837H36.19V46.4971C36.1919 46.2701 36.1507 46.0449 36.0685 45.8334C35.9953 45.6347 35.8825 45.453 35.7371 45.2994Z"/>
            <path d="M41.6289 45.2561C41.3127 44.9891 40.9136 44.8416 40.5007 44.8391C40.2987 44.84 40.0984 44.8761 39.9087 44.9459C39.7161 45.0149 39.5384 45.1202 39.3851 45.2561C39.2208 45.4038 39.0897 45.585 39.0005 45.7876C38.9006 46.0194 38.8515 46.27 38.8563 46.5225V50.1614C38.8495 50.4174 38.8987 50.6718 39.0005 50.9065C39.0903 51.1022 39.2215 51.2758 39.3851 51.4151C39.5367 51.5558 39.7147 51.6648 39.9087 51.7355C40.0984 51.8053 40.2987 51.8414 40.5007 51.8423C40.7027 51.8419 40.9031 51.8058 41.0926 51.7355C41.29 51.6638 41.4719 51.5551 41.6289 51.4151C41.7871 51.2732 41.9145 51.1 42.0033 50.9065C42.1051 50.6718 42.1544 50.4174 42.1475 50.1614V46.5225C42.1524 46.27 42.1032 46.0194 42.0033 45.7876C41.9151 45.5871 41.7878 45.4064 41.6289 45.2561ZM41.166 50.1614C41.1743 50.2584 41.1609 50.356 41.1268 50.4471C41.0926 50.5382 41.0386 50.6205 40.9687 50.6878C40.8377 50.7977 40.6725 50.8578 40.5019 50.8578C40.3313 50.8578 40.1662 50.7977 40.0352 50.6878C39.9652 50.6205 39.9112 50.5382 39.8771 50.4471C39.8429 50.356 39.8295 50.2584 39.8379 50.1614V46.5225C39.8295 46.4255 39.8429 46.3279 39.8771 46.2368C39.9112 46.1457 39.9652 46.0635 40.0352 45.9961C40.1662 45.8863 40.3313 45.8261 40.5019 45.8261C40.6725 45.8261 40.8377 45.8863 40.9687 45.9961C41.0386 46.0635 41.0926 46.1457 41.1268 46.2368C41.1609 46.3279 41.1743 46.4255 41.166 46.5225V50.1614Z"/>
            <path d="M49.3673 51.7864V44.8977H48.4136L47.1614 48.5442H47.1437L45.8813 44.8977H44.9377V51.7864H45.9218V47.5957H45.9395L46.9033 50.5582H47.3941L48.3655 47.5957H48.3832V51.7864H49.3673Z"/>
            <path d="M54.9581 45.3807C54.8065 45.2107 54.6153 45.0814 54.4015 45.0043C54.1712 44.9294 53.9302 44.8933 53.6881 44.8975H52.226V51.7863H53.2075V49.0959H53.7134C54.0197 49.1098 54.3244 49.0451 54.5988 48.9077C54.822 48.7838 55.0081 48.602 55.1377 48.3813C55.2512 48.1981 55.3277 47.9942 55.3628 47.7812C55.4014 47.522 55.4192 47.2601 55.4159 46.998C55.4255 46.6672 55.3932 46.3365 55.3198 46.0139C55.2543 45.7755 55.1299 45.5577 54.9581 45.3807ZM54.4521 47.4812C54.4479 47.6059 54.4168 47.7282 54.361 47.8397C54.3049 47.9456 54.2162 48.0304 54.1081 48.0813C53.9627 48.1463 53.8041 48.1759 53.6451 48.1677H53.1974V45.8257H53.7033C53.8557 45.8182 54.0075 45.8479 54.146 45.9122C54.2475 45.9704 54.3281 46.0594 54.3762 46.1665C54.4299 46.2875 54.4591 46.418 54.4622 46.5504C54.4622 46.6954 54.4622 46.848 54.4622 47.0082C54.4622 47.1684 54.4723 47.3337 54.4622 47.4812H54.4521Z"/>
            <path d="M59.6077 44.8977H58.8032L57.2854 51.7864H58.2669L58.5553 50.3065H59.8935L60.1819 51.7864H61.1635L59.6077 44.8977ZM58.702 49.3681L59.1852 46.871H59.2029L59.6836 49.3681H58.702Z"/>
            <path d="M65.9497 49.0477H65.932L64.4496 44.8977H63.506V51.7864H64.4875V47.644H64.5078L66.0079 51.7864H66.9312V44.8977H65.9497V49.0477Z"/>
            <path d="M71.9476 44.8977L71.1583 47.6364H71.1381L70.3488 44.8977H69.3091L70.6574 48.8748V51.7864H71.639V48.8748L72.9873 44.8977H71.9476Z"/>
            </g>
            <defs>
            <clipPath id="clip0_75273_676">
            <rect width="106" height="52.8261" fill="white" transform="translate(0 0.0869751)"/>
            </clipPath>
            </defs>
    </symbol>
    <symbol id="icon-logo2" viewBox="0 0 106 52.3">
        <path d="M36.4063 49.1885C36.4222 49.1888 36.4379 49.192 36.4524 49.1977C36.4669 49.2034 36.4799 49.2115 36.4908 49.2216L36.7089 49.4301C36.5396 49.5989 36.3304 49.7338 36.0955 49.8258C35.8204 49.9261 35.5239 49.9746 35.2257 49.9679C34.9455 49.973 34.6671 49.9278 34.4078 49.8353C34.1739 49.7503 33.9638 49.6226 33.7916 49.4609C33.6159 49.2932 33.4805 49.0967 33.3935 48.8828C33.2982 48.6445 33.2512 48.3936 33.2545 48.1413C33.2506 47.8873 33.3015 47.635 33.4044 47.3973C33.4997 47.1821 33.6433 46.9856 33.827 46.8192C34.0132 46.6561 34.2359 46.5279 34.4814 46.4425C34.7499 46.3521 35.0359 46.307 35.3239 46.3098C35.5914 46.3042 35.8575 46.3453 36.1064 46.4307C36.3223 46.5121 36.5206 46.6251 36.6926 46.7647L36.5099 46.9874C36.4973 47.0031 36.4816 47.0168 36.4635 47.0277C36.442 47.0406 36.4159 47.0464 36.3899 47.0443C36.3616 47.0426 36.3343 47.0344 36.3109 47.0206L36.2127 46.9614L36.0764 46.8856C36.0175 46.8574 35.9565 46.8329 35.8937 46.8121C35.8128 46.787 35.7299 46.7672 35.6456 46.7529C35.5386 46.7358 35.4299 46.7278 35.3211 46.7292C35.1138 46.7269 34.908 46.7608 34.7159 46.8287C34.5367 46.8916 34.375 46.9869 34.2415 47.1083C34.1055 47.2373 34.0007 47.3888 33.9334 47.5537C33.8566 47.7423 33.8187 47.9412 33.8216 48.1413C33.8183 48.3444 33.8561 48.5465 33.9334 48.7383C33.9999 48.9018 34.1027 49.0523 34.236 49.1814C34.3609 49.3017 34.5157 49.3956 34.6886 49.4562C34.8666 49.5203 35.0576 49.5525 35.2503 49.551C35.3615 49.5524 35.4728 49.5461 35.5829 49.532C35.7627 49.5129 35.9351 49.4587 36.0873 49.3733C36.1636 49.3295 36.2356 49.2804 36.3027 49.2264C36.3307 49.2031 36.3676 49.1896 36.4063 49.1885Z"/>
        <path d="M42.7044 48.1408C42.7078 48.3922 42.6579 48.642 42.5572 48.8776C42.4684 49.0914 42.3284 49.2863 42.1465 49.4497C41.9646 49.613 41.745 49.741 41.5021 49.8252C40.9683 50.0022 40.3782 50.0022 39.8444 49.8252C39.603 49.7397 39.3848 49.6114 39.2037 49.4486C39.0219 49.2822 38.8809 49.0856 38.7893 48.8705C38.5929 48.3933 38.5929 47.8718 38.7893 47.3946C38.8823 47.1794 39.0231 46.9822 39.2037 46.8142C39.3864 46.6564 39.6045 46.533 39.8444 46.4517C40.3775 46.2716 40.969 46.2716 41.5021 46.4517C41.7443 46.5372 41.9634 46.6655 42.1455 46.8284C42.325 46.9931 42.465 47.1872 42.5572 47.3993C42.6582 47.6366 42.7081 47.8879 42.7044 48.1408ZM42.1319 48.1408C42.1362 47.9398 42.1011 47.7395 42.0283 47.5486C41.9672 47.385 41.8679 47.2342 41.7366 47.1056C41.6087 46.9839 41.4513 46.8884 41.2758 46.826C40.8879 46.6965 40.4586 46.6965 40.0707 46.826C39.8952 46.8884 39.7378 46.9839 39.6099 47.1056C39.4768 47.2335 39.3764 47.3845 39.3155 47.5486C39.1768 47.9342 39.1768 48.3475 39.3155 48.7331C39.377 48.897 39.4773 49.0479 39.6099 49.1761C39.7379 49.2971 39.8953 49.3918 40.0707 49.4533C40.4593 49.5795 40.8872 49.5795 41.2758 49.4533C41.4512 49.3918 41.6086 49.2971 41.7366 49.1761C41.8673 49.0471 41.9665 48.8964 42.0283 48.7331C42.1015 48.5423 42.1365 48.342 42.1319 48.1408Z"/>
        <path d="M47.0013 48.7617L47.0586 48.8944C47.0804 48.847 47.0995 48.8044 47.1213 48.7617C47.1421 48.7172 47.1657 48.6737 47.1922 48.6315L48.5854 46.4309C48.6127 46.393 48.6372 46.3693 48.6645 46.3622C48.7015 46.3524 48.7403 46.3484 48.779 46.3503H49.1907V49.9295H48.7026V47.2978C48.7026 47.2647 48.7026 47.2268 48.7026 47.1865C48.7 47.1455 48.7 47.1044 48.7026 47.0633L47.3012 49.2947C47.2834 49.3281 47.255 49.3564 47.2192 49.3761C47.1834 49.3959 47.1418 49.4063 47.0995 49.406H47.0204C46.9779 49.4066 46.9362 49.3963 46.9004 49.3765C46.8646 49.3568 46.8362 49.3283 46.8186 49.2947L45.3763 47.0491C45.3763 47.0918 45.3763 47.1344 45.3763 47.177C45.3763 47.2197 45.3763 47.2576 45.3763 47.2907V49.9224H44.9047V46.3503H45.3164C45.355 46.3484 45.3938 46.3524 45.4309 46.3622C45.4647 46.3767 45.4916 46.401 45.5072 46.4309L46.9304 48.6338C46.9584 48.6745 46.9821 48.7174 47.0013 48.7617Z" />
        <path d="M52.2443 48.5839V49.9246H51.699V46.3502H52.915C53.1446 46.3464 53.3735 46.3727 53.5939 46.4284C53.7704 46.4718 53.9341 46.5478 54.0738 46.651C54.1949 46.7478 54.2883 46.8679 54.3464 47.0016C54.4108 47.1474 54.4423 47.3026 54.4391 47.4588C54.4415 47.6155 54.4072 47.7711 54.3383 47.9159C54.2727 48.0531 54.172 48.1754 54.0438 48.2736C53.9039 48.3812 53.7395 48.4619 53.5612 48.5105C53.3489 48.5694 53.1269 48.5974 52.9041 48.5934L52.2443 48.5839ZM52.2443 48.2002H52.9041C53.0475 48.2018 53.1901 48.1834 53.3267 48.1457C53.4394 48.1127 53.5433 48.0604 53.6321 47.9917C53.714 47.9262 53.7775 47.8451 53.8175 47.7549C53.8621 47.6594 53.8844 47.5571 53.8829 47.454C53.8893 47.3547 53.8706 47.2553 53.8282 47.1628C53.7859 47.0704 53.7208 46.9871 53.6376 46.9187C53.4293 46.7774 53.1676 46.709 52.9041 46.7268H52.2443V48.2002Z"/>
        <path d="M59.5731 49.9294H59.1423C59.0991 49.9309 59.0566 49.9191 59.0223 49.8963C58.9914 49.874 58.9671 49.8455 58.9514 49.8133L58.5806 48.9487H56.7185L56.334 49.8133C56.3199 49.845 56.2964 49.8727 56.2659 49.8939C56.2312 49.9181 56.1877 49.9308 56.1432 49.9294H55.7124L57.3483 46.3499H57.9154L59.5731 49.9294ZM56.8739 48.6004H58.4116L57.7627 47.1435C57.7131 47.0339 57.6721 46.9215 57.64 46.8071L57.5773 46.9942C57.5582 47.0511 57.5364 47.1032 57.5173 47.1458L56.8739 48.6004Z"/>
        <path d="M61.9288 46.3665C61.9614 46.382 61.9894 46.4039 62.0106 46.4305L64.3962 49.1287C64.3962 49.0861 64.3962 49.0435 64.3962 49.0032C64.3962 48.9629 64.3962 48.9226 64.3962 48.8847V46.3499H64.8843V49.9294H64.6116C64.5729 49.9305 64.5345 49.9231 64.4998 49.9081C64.4662 49.8911 64.4365 49.8685 64.4126 49.8418L62.0297 47.1459C62.0323 47.1869 62.0323 47.2281 62.0297 47.2691C62.0297 47.3094 62.0297 47.3449 62.0297 47.3781V49.9294H61.5416V46.3499H61.8306C61.8644 46.3491 61.8979 46.3548 61.9288 46.3665Z"/>
        <path d="M68.9031 48.5058V49.9272H68.3578V48.5058L66.85 46.3501H67.3381C67.3801 46.3479 67.4217 46.3588 67.4553 46.3809C67.485 46.4039 67.5099 46.4311 67.5289 46.4614L68.4723 47.852C68.5105 47.9112 68.5432 47.9657 68.5705 48.0178C68.5977 48.07 68.6195 48.1197 68.6386 48.1695L68.7095 48.0155C68.736 47.9592 68.7669 47.9045 68.8022 47.852L69.7319 46.452C69.7515 46.424 69.7753 46.3985 69.8028 46.3761C69.8352 46.3516 69.8772 46.3389 69.9201 46.3406H70.4136L68.9031 48.5058Z"/>
        <path d="M46.7314 40.3431C46.9686 40.3692 47.2086 40.3905 47.4512 40.4094C51.1301 38.9796 54.2422 36.6393 56.3987 33.6812C58.5552 30.723 59.6603 27.2782 59.5759 23.7774L55.5216 20.2548C56.346 23.9821 55.9604 27.8352 54.408 31.3829C52.8555 34.9306 50.1976 38.0331 46.7314 40.3431Z"/>
        <path d="M45.2837 40.1793L45.3928 40.1982C49.0966 37.8964 51.9205 34.682 53.4993 30.9708C55.078 27.2597 55.3389 23.2223 54.2483 19.3809L48.4737 14.3637C50.8094 18.4877 51.7495 23.1031 51.1848 27.6731C50.6201 32.2432 48.5737 36.58 45.2837 40.1793Z"/>
        <path d="M64.8679 27.9136C63.8868 31.7602 61.5041 35.2293 58.0735 37.8059C57.0716 38.5626 55.9909 39.2366 54.8454 39.8194C57.6389 39.1061 60.2065 37.8448 62.3502 36.133C64.494 34.4212 66.1566 32.3044 67.21 29.9461L64.8679 27.9136Z"/>
        <path d="M63.9491 27.3472L60.6146 24.45C60.5509 27.7531 59.4701 30.9811 57.4846 33.7985C55.4991 36.6158 52.6814 38.9198 49.3243 40.4708H49.3406C50.0888 40.4706 50.8362 40.4318 51.5791 40.3547C54.7165 39.2421 57.488 37.472 59.6465 35.2023C61.8049 32.9326 63.2831 30.234 63.9491 27.3472Z"/>
        <path d="M45.7663 12.2479L41.7883 8.78699C38.2322 9.98094 35.1738 12.0799 33.0134 14.8091C30.8529 17.5383 29.6912 20.7706 29.6801 24.0829V24.0829C29.6934 27.743 31.1113 31.2947 33.7093 34.1758C36.3073 37.057 39.9371 39.103 44.0241 39.9901C47.6725 36.128 49.8086 31.3558 50.1219 26.3668C50.4352 21.3778 48.9094 16.432 45.7663 12.2479Z"/>
        <path d="M73.1401 26.8144C73.1257 22.4719 71.1339 18.3108 67.5997 15.2402C64.0656 12.1696 59.2764 10.439 54.2784 10.4265C51.9688 10.4244 49.6789 10.7947 47.5249 11.5186L71.8805 32.6797C72.7144 30.8091 73.1415 28.8203 73.1401 26.8144Z"/>
    </symbol>
    <symbol id="icon-logo3" viewBox="0 0 106 52.3">
        <path d="M24.1462 21.1899H24.1433C21.7453 21.1899 19.8013 22.9175 19.8013 25.0485V25.0511C19.8013 27.1822 21.7453 28.9098 24.1433 28.9098H24.1462C26.5442 28.9098 28.4882 27.1822 28.4882 25.0511V25.0485C28.4882 22.9175 26.5442 21.1899 24.1462 21.1899Z"/>
        <path d="M56.195 19.9563C56.1882 16.9963 54.8623 14.1593 52.5074 12.066C50.1525 9.97271 46.9604 8.79371 43.6297 8.78699V8.78699C40.298 8.79236 37.1045 9.97078 34.7484 12.0642C32.3922 14.1576 31.0655 16.9955 31.0587 19.9563V36.2792C31.0587 36.2792 56.1922 33.7914 56.195 19.9589V19.9563Z"/>
        <path d="M11 41.6365C11.006 43.6961 11.9291 45.6698 13.5676 47.1264C15.2061 48.583 17.4267 49.404 19.7442 49.4101C22.0612 49.4041 24.2814 48.5834 25.9197 47.1273C27.5581 45.6713 28.4816 43.6982 28.4884 41.639V30.2814C28.4884 30.2814 11 32.0136 11 41.6365ZM19.7442 43.6715C19.2913 43.6715 18.8486 43.5521 18.472 43.3285C18.0955 43.1049 17.802 42.7871 17.6287 42.4153C17.4554 42.0434 17.41 41.6342 17.4984 41.2395C17.5867 40.8448 17.8048 40.4822 18.125 40.1976C18.4453 39.913 18.8533 39.7192 19.2975 39.6406C19.7416 39.5621 20.202 39.6024 20.6205 39.7564C21.0389 39.9105 21.3965 40.1713 21.6481 40.5059C21.8997 40.8406 22.034 41.234 22.034 41.6365C22.0351 41.9044 21.9767 42.1698 21.8622 42.4176C21.7476 42.6654 21.5791 42.8906 21.3664 43.0804C21.1536 43.2702 20.9008 43.4207 20.6224 43.5235C20.3441 43.6262 20.0456 43.6791 19.7442 43.6791V43.6715Z"/>
        <path d="M35.7302 40.0283V44.2939H34.8513V40.0283H35.7302ZM37.4294 41.8506V42.5361H35.4899V41.8506H37.4294ZM37.6345 40.0283V40.7168H35.4899V40.0283H37.6345ZM41.6481 42.0615V42.2637C41.6481 42.5879 41.6042 42.8789 41.5163 43.1367C41.4284 43.3945 41.3044 43.6143 41.1442 43.7959C40.9841 43.9756 40.7927 44.1133 40.57 44.209C40.3493 44.3047 40.1042 44.3525 39.8347 44.3525C39.5671 44.3525 39.322 44.3047 39.0993 44.209C38.8786 44.1133 38.6872 43.9756 38.5251 43.7959C38.363 43.6143 38.237 43.3945 38.1472 43.1367C38.0593 42.8789 38.0153 42.5879 38.0153 42.2637V42.0615C38.0153 41.7354 38.0593 41.4443 38.1472 41.1885C38.235 40.9307 38.3591 40.7109 38.5192 40.5293C38.6813 40.3477 38.8727 40.209 39.0934 40.1133C39.3161 40.0176 39.5612 39.9697 39.8288 39.9697C40.0983 39.9697 40.3434 40.0176 40.5641 40.1133C40.7868 40.209 40.9782 40.3477 41.1384 40.5293C41.3005 40.7109 41.4255 40.9307 41.5134 41.1885C41.6032 41.4443 41.6481 41.7354 41.6481 42.0615ZM40.7604 42.2637V42.0557C40.7604 41.8291 40.7399 41.6299 40.6989 41.458C40.6579 41.2861 40.5974 41.1416 40.5173 41.0244C40.4372 40.9072 40.3395 40.8193 40.2243 40.7607C40.1091 40.7002 39.9772 40.6699 39.8288 40.6699C39.6804 40.6699 39.5485 40.7002 39.4333 40.7607C39.32 40.8193 39.2233 40.9072 39.1432 41.0244C39.0651 41.1416 39.0056 41.2861 38.9645 41.458C38.9235 41.6299 38.903 41.8291 38.903 42.0557V42.2637C38.903 42.4883 38.9235 42.6875 38.9645 42.8613C39.0056 43.0332 39.0661 43.1787 39.1462 43.2979C39.2263 43.415 39.3239 43.5039 39.4391 43.5645C39.5544 43.625 39.6862 43.6553 39.8347 43.6553C39.9831 43.6553 40.1149 43.625 40.2302 43.5645C40.3454 43.5039 40.4421 43.415 40.5202 43.2979C40.5983 43.1787 40.6579 43.0332 40.6989 42.8613C40.7399 42.6875 40.7604 42.4883 40.7604 42.2637ZM44.5016 43.1777C44.5016 43.1016 44.4899 43.0332 44.4665 42.9727C44.445 42.9102 44.404 42.8535 44.3434 42.8027C44.2829 42.75 44.1979 42.6982 44.0886 42.6475C43.9792 42.5967 43.8376 42.5439 43.6638 42.4893C43.4704 42.4268 43.2868 42.3564 43.113 42.2783C42.9411 42.2002 42.7888 42.1094 42.6559 42.0059C42.5251 41.9004 42.4216 41.7783 42.3454 41.6396C42.2712 41.501 42.2341 41.3398 42.2341 41.1562C42.2341 40.9785 42.2731 40.8174 42.3513 40.6729C42.4294 40.5264 42.5388 40.4014 42.6794 40.2979C42.82 40.1924 42.986 40.1113 43.1774 40.0547C43.3708 39.998 43.5827 39.9697 43.8132 39.9697C44.1276 39.9697 44.402 40.0264 44.6364 40.1396C44.8708 40.2529 45.0524 40.4082 45.1813 40.6055C45.3122 40.8027 45.3776 41.0283 45.3776 41.2822H44.5046C44.5046 41.1572 44.4782 41.0479 44.4255 40.9541C44.3747 40.8584 44.2966 40.7832 44.1911 40.7285C44.0876 40.6738 43.9567 40.6465 43.7985 40.6465C43.6462 40.6465 43.5192 40.6699 43.4177 40.7168C43.3161 40.7617 43.2399 40.8232 43.1891 40.9014C43.1384 40.9775 43.113 41.0635 43.113 41.1592C43.113 41.2314 43.1306 41.2969 43.1657 41.3555C43.2028 41.4141 43.2575 41.4688 43.3298 41.5195C43.402 41.5703 43.4909 41.6182 43.5964 41.6631C43.7018 41.708 43.8239 41.752 43.9626 41.7949C44.195 41.8652 44.3991 41.9443 44.5749 42.0322C44.7526 42.1201 44.9011 42.2188 45.0202 42.3281C45.1393 42.4375 45.2292 42.5615 45.2897 42.7002C45.3503 42.8389 45.3806 42.9961 45.3806 43.1719C45.3806 43.3574 45.3444 43.5234 45.2722 43.6699C45.1999 43.8164 45.0954 43.9404 44.9587 44.042C44.822 44.1436 44.6589 44.2207 44.4694 44.2734C44.28 44.3262 44.0681 44.3525 43.8337 44.3525C43.6227 44.3525 43.4147 44.3252 43.2097 44.2705C43.0046 44.2139 42.8181 44.1289 42.6501 44.0156C42.4841 43.9023 42.3513 43.7578 42.2516 43.582C42.152 43.4062 42.1022 43.1982 42.1022 42.958H42.9841C42.9841 43.0908 43.0046 43.2031 43.0456 43.2949C43.0866 43.3867 43.1442 43.4609 43.2184 43.5176C43.2946 43.5742 43.3845 43.6152 43.488 43.6406C43.5934 43.666 43.7087 43.6787 43.8337 43.6787C43.986 43.6787 44.111 43.6572 44.2087 43.6143C44.3083 43.5713 44.3815 43.5117 44.4284 43.4355C44.4772 43.3594 44.5016 43.2734 44.5016 43.1777ZM47.8854 40.0283V44.2939H47.0095V40.0283H47.8854ZM49.1979 40.0283V40.7168H45.7175V40.0283H49.1979ZM52.5612 43.6084V44.2939H50.2907V43.6084H52.5612ZM50.5778 40.0283V44.2939H49.6989V40.0283H50.5778ZM52.2653 41.7656V42.4336H50.2907V41.7656H52.2653ZM52.5583 40.0283V40.7168H50.2907V40.0283H52.5583ZM53.0739 40.0283H54.6647C54.9909 40.0283 55.2712 40.0771 55.5056 40.1748C55.7419 40.2725 55.9235 40.417 56.0505 40.6084C56.1774 40.7998 56.2409 41.0352 56.2409 41.3145C56.2409 41.543 56.2018 41.7393 56.1237 41.9033C56.0475 42.0654 55.9391 42.2012 55.7985 42.3105C55.6599 42.418 55.4968 42.5039 55.3093 42.5684L55.0309 42.7148H53.6481L53.6423 42.0293H54.6706C54.8249 42.0293 54.9528 42.002 55.0544 41.9473C55.1559 41.8926 55.2321 41.8164 55.2829 41.7188C55.3356 41.6211 55.362 41.5078 55.362 41.3789C55.362 41.2422 55.3366 41.124 55.2858 41.0244C55.235 40.9248 55.1579 40.8486 55.0544 40.7959C54.9509 40.7432 54.821 40.7168 54.6647 40.7168H53.9528V44.2939H53.0739V40.0283ZM55.4587 44.2939L54.486 42.3926L55.4147 42.3867L56.3991 44.2529V44.2939H55.4587ZM60.0729 42.7734H58.986V42.0879H60.0729C60.2409 42.0879 60.3776 42.0605 60.4831 42.0059C60.5886 41.9492 60.6657 41.8711 60.7145 41.7715C60.7634 41.6719 60.7878 41.5596 60.7878 41.4346C60.7878 41.3076 60.7634 41.1895 60.7145 41.0801C60.6657 40.9707 60.5886 40.8828 60.4831 40.8164C60.3776 40.75 60.2409 40.7168 60.0729 40.7168H59.2907V44.2939H58.4118V40.0283H60.0729C60.4069 40.0283 60.6931 40.0889 60.9313 40.21C61.1716 40.3291 61.3552 40.4941 61.4821 40.7051C61.6091 40.916 61.6725 41.1572 61.6725 41.4287C61.6725 41.7041 61.6091 41.9424 61.4821 42.1436C61.3552 42.3447 61.1716 42.5 60.9313 42.6094C60.6931 42.7188 60.4069 42.7734 60.0729 42.7734ZM65.1413 43.6084V44.2939H62.8708V43.6084H65.1413ZM63.1579 40.0283V44.2939H62.279V40.0283H63.1579ZM64.8454 41.7656V42.4336H62.8708V41.7656H64.8454ZM65.1384 40.0283V40.7168H62.8708V40.0283H65.1384ZM67.6198 40.0283V44.2939H66.7438V40.0283H67.6198ZM68.9323 40.0283V40.7168H65.4518V40.0283H68.9323ZM72.2956 43.6084V44.2939H70.0251V43.6084H72.2956ZM70.3122 40.0283V44.2939H69.4333V40.0283H70.3122ZM71.9997 41.7656V42.4336H70.0251V41.7656H71.9997ZM72.2927 40.0283V40.7168H70.0251V40.0283H72.2927ZM72.8083 40.0283H74.3991C74.7253 40.0283 75.0056 40.0771 75.2399 40.1748C75.4763 40.2725 75.6579 40.417 75.7849 40.6084C75.9118 40.7998 75.9753 41.0352 75.9753 41.3145C75.9753 41.543 75.9362 41.7393 75.8581 41.9033C75.7819 42.0654 75.6735 42.2012 75.5329 42.3105C75.3942 42.418 75.2311 42.5039 75.0436 42.5684L74.7653 42.7148H73.3825L73.3766 42.0293H74.405C74.5593 42.0293 74.6872 42.002 74.7888 41.9473C74.8903 41.8926 74.9665 41.8164 75.0173 41.7188C75.07 41.6211 75.0964 41.5078 75.0964 41.3789C75.0964 41.2422 75.071 41.124 75.0202 41.0244C74.9694 40.9248 74.8923 40.8486 74.7888 40.7959C74.6852 40.7432 74.5554 40.7168 74.3991 40.7168H73.6872V44.2939H72.8083V40.0283ZM75.1931 44.2939L74.2204 42.3926L75.1491 42.3867L76.1335 44.2529V44.2939H75.1931ZM78.8727 43.1777C78.8727 43.1016 78.861 43.0332 78.8376 42.9727C78.8161 42.9102 78.7751 42.8535 78.7145 42.8027C78.654 42.75 78.569 42.6982 78.4597 42.6475C78.3503 42.5967 78.2087 42.5439 78.0349 42.4893C77.8415 42.4268 77.6579 42.3564 77.4841 42.2783C77.3122 42.2002 77.1599 42.1094 77.027 42.0059C76.8962 41.9004 76.7927 41.7783 76.7165 41.6396C76.6423 41.501 76.6052 41.3398 76.6052 41.1562C76.6052 40.9785 76.6442 40.8174 76.7224 40.6729C76.8005 40.5264 76.9099 40.4014 77.0505 40.2979C77.1911 40.1924 77.3571 40.1113 77.5485 40.0547C77.7419 39.998 77.9538 39.9697 78.1843 39.9697C78.4987 39.9697 78.7731 40.0264 79.0075 40.1396C79.2419 40.2529 79.4235 40.4082 79.5524 40.6055C79.6833 40.8027 79.7487 41.0283 79.7487 41.2822H78.8757C78.8757 41.1572 78.8493 41.0479 78.7966 40.9541C78.7458 40.8584 78.6677 40.7832 78.5622 40.7285C78.4587 40.6738 78.3278 40.6465 78.1696 40.6465C78.0173 40.6465 77.8903 40.6699 77.7888 40.7168C77.6872 40.7617 77.611 40.8232 77.5602 40.9014C77.5095 40.9775 77.4841 41.0635 77.4841 41.1592C77.4841 41.2314 77.5016 41.2969 77.5368 41.3555C77.5739 41.4141 77.6286 41.4688 77.7009 41.5195C77.7731 41.5703 77.862 41.6182 77.9675 41.6631C78.0729 41.708 78.195 41.752 78.3337 41.7949C78.5661 41.8652 78.7702 41.9443 78.946 42.0322C79.1237 42.1201 79.2722 42.2188 79.3913 42.3281C79.5104 42.4375 79.6003 42.5615 79.6608 42.7002C79.7214 42.8389 79.7516 42.9961 79.7516 43.1719C79.7516 43.3574 79.7155 43.5234 79.6432 43.6699C79.571 43.8164 79.4665 43.9404 79.3298 44.042C79.1931 44.1436 79.03 44.2207 78.8405 44.2734C78.6511 44.3262 78.4391 44.3525 78.2048 44.3525C77.9938 44.3525 77.7858 44.3252 77.5807 44.2705C77.3757 44.2139 77.1891 44.1289 77.0212 44.0156C76.8552 43.9023 76.7224 43.7578 76.6227 43.582C76.5231 43.4062 76.4733 43.1982 76.4733 42.958H77.3552C77.3552 43.0908 77.3757 43.2031 77.4167 43.2949C77.4577 43.3867 77.5153 43.4609 77.5895 43.5176C77.6657 43.5742 77.7556 43.6152 77.8591 43.6406C77.9645 43.666 78.0798 43.6787 78.2048 43.6787C78.3571 43.6787 78.4821 43.6572 78.5798 43.6143C78.6794 43.5713 78.7526 43.5117 78.7995 43.4355C78.8483 43.3594 78.8727 43.2734 78.8727 43.1777Z"/>
        
    </symbol>
    <symbol id="icon-logo4" viewBox="0 0 106 52.3">
        <g clip-path="url(#clip0_75273_733)">
            <path d="M26.7569 44.8221C27.0006 45.0983 27.1304 45.4441 27.1236 45.7991C27.136 46.0307 27.0914 46.2618 26.993 46.4754C26.8947 46.689 26.7451 46.8797 26.5554 47.0332C26.082 47.3605 25.4956 47.5205 24.9037 47.4838H22V41.2924H24.8442C25.4057 41.2582 25.9626 41.4036 26.42 41.7037C26.6036 41.8445 26.7491 42.0224 26.8448 42.2235C26.9406 42.4245 26.984 42.6431 26.9716 42.8622C26.9883 43.2037 26.8712 43.5395 26.6413 43.8089C26.4206 44.0549 26.1156 44.2254 25.7758 44.2928C26.161 44.3572 26.5087 44.5448 26.7569 44.8221ZM23.3511 43.8875H24.5667C24.843 43.9062 25.1174 43.8332 25.3397 43.6819C25.431 43.6061 25.502 43.5122 25.5473 43.4073C25.5925 43.3024 25.6108 43.1893 25.6007 43.0769C25.6093 42.9649 25.5906 42.8526 25.5461 42.748C25.5015 42.6434 25.4322 42.5491 25.343 42.472C25.1141 42.3164 24.8312 42.2422 24.5469 42.2633H23.3511V43.8875ZM25.4587 46.2619C25.5562 46.1843 25.6329 46.0872 25.6828 45.9781C25.7326 45.869 25.7543 45.7508 25.7461 45.6328C25.7535 45.5133 25.7309 45.3939 25.6799 45.2838C25.6289 45.1737 25.551 45.0757 25.4521 44.9976C25.2142 44.8361 24.9217 44.7569 24.6262 44.7738H23.3511V46.4766H24.6427C24.9334 46.492 25.2212 46.4163 25.4587 46.2619Z"/>
            <path d="M32.5709 47.4839L30.9886 45.0641H30.394V47.4839H29.033V41.2924H31.6096C32.2591 41.2509 32.9012 41.4393 33.4034 41.8187C33.7635 42.1547 33.9808 42.5975 34.0159 43.0672C34.051 43.537 33.9018 44.0027 33.595 44.3806C33.2771 44.714 32.8428 44.9364 32.3661 45.0097L34.0508 47.4839H32.5709ZM30.394 44.2203H31.5072C32.2802 44.2203 32.6667 43.9077 32.6667 43.2826C32.6746 43.155 32.6534 43.0272 32.6045 42.9074C32.5556 42.7877 32.48 42.6785 32.3826 42.5869C32.1383 42.4009 31.8237 42.3107 31.5072 42.3359H30.3807L30.394 44.2203Z"/>
            <path d="M40.0102 46.2376H37.2981L36.8191 47.4837H35.392L37.8828 41.3618H39.4255L41.9063 47.4837H40.4793L40.0102 46.2376ZM39.6468 45.2999L38.6558 42.6866L37.6648 45.2999H39.6468Z"/>
            <path d="M49.3224 47.4838H47.9713L44.9421 43.2735V47.4838H43.5943V41.2924H44.9421L47.9713 45.5269V41.2924H49.3224V47.4838Z"/>
            <path d="M57.0326 46.0018C56.7532 46.4692 56.3276 46.8495 55.8103 47.0937C55.2222 47.3657 54.5695 47.4998 53.9109 47.4839H51.506V41.2924H53.9109C54.5684 41.2767 55.2202 41.4075 55.8103 41.6735C56.3275 41.9122 56.7536 42.2886 57.0326 42.7533C57.3107 43.2569 57.4556 43.8133 57.4556 44.3776C57.4556 44.9418 57.3107 45.4982 57.0326 46.0018ZM55.4866 45.8536C55.8722 45.4423 56.0842 44.9181 56.0842 44.376C56.0842 43.834 55.8722 43.3098 55.4866 42.8985C55.0205 42.5259 54.4127 42.3368 53.7952 42.3722H52.8571V46.3799H53.7952C54.4127 46.4153 55.0205 46.2261 55.4866 45.8536Z"/>
            <path d="M40.8558 6.85364C40.8558 6.85364 58.2945 12.8818 57.9245 21.6049V36.3591C57.9245 36.3591 40.4991 30.328 40.8624 21.6049L40.8558 6.85364Z"/>
            <path d="M73.4603 32.9049C76.7538 30.8296 80.5633 29.5442 84.5399 29.1664V24.5478C79.9579 26.1648 76.0709 29.0967 73.4603 32.9049Z"/>
            <path d="M71.4816 34.2964C74.1773 29.3265 78.8505 25.4914 84.54 23.58V10.2715C84.54 10.2715 59.705 18.8585 60.2303 31.2808V52.287C60.2303 52.287 61.3369 51.9029 63.0778 51.183C63.0778 50.5115 63.0778 49.834 63.1571 49.1535C63.6711 43.3865 66.6654 38.0424 71.4816 34.2964Z"/>
            <path d="M69.1197 42.1C69.2502 40.6432 69.5413 39.2021 69.9885 37.799C66.9896 41.034 65.1734 45.0484 64.7956 49.2775C64.7592 49.6768 64.7394 50.076 64.7295 50.4874C66.14 49.8673 67.7818 49.093 69.5062 48.1826C69.0662 46.1817 68.936 44.1341 69.1197 42.1Z"/>
            <path d="M70.1075 42.1756C69.9421 44.0159 70.0454 45.8682 70.4147 47.6835C77.1999 43.9662 84.8241 38.2224 84.5301 31.2808V30.6759C79.6824 31.1726 75.1468 33.1129 71.6204 36.1989C70.7948 38.1113 70.2849 40.1257 70.1075 42.1756Z"/>
            </g>
            <defs>
            <clipPath id="clip0_75273_733">
            <rect width="106" height="52.8261" fill="white" transform="translate(0 0.0869751)"/>
            </clipPath>
            </defs>
    </symbol>
    <symbol id="icon-logo5" viewBox="0 0 106 52.3">
        <path d="M53.425 27.4952C52.9819 26.9054 52.7699 26.2083 52.8203 25.5066V22.6234C52.8203 21.7396 53.0207 21.0679 53.4216 20.6084C53.8224 20.1489 54.511 19.9201 55.4871 19.9221C56.4044 19.9221 57.0555 20.1176 57.4405 20.5087C57.8605 21.0077 58.0648 21.6178 58.018 22.2333V22.9108H56.3772V22.2245C56.383 21.9999 56.3671 21.7752 56.3296 21.5528C56.306 21.4008 56.2234 21.2602 56.0952 21.154C55.9267 21.0394 55.7145 20.9839 55.5007 20.9985C55.2759 20.984 55.0529 21.0426 54.8756 21.1628C54.7327 21.2804 54.6374 21.4347 54.6038 21.6027C54.5567 21.838 54.5351 22.0766 54.5393 22.3154V25.8146C54.5134 26.1521 54.5858 26.4899 54.7499 26.7971C54.8315 26.9011 54.9448 26.9835 55.0774 27.0353C55.2099 27.087 55.3564 27.1061 55.5007 27.0904C55.7109 27.1054 55.9195 27.0485 56.0816 26.9321C56.2153 26.8175 56.3013 26.668 56.3262 26.5068C56.3645 26.2746 56.3816 26.0402 56.3772 25.8058V25.096H58.018V25.7442C58.0641 26.3857 57.8648 27.0226 57.4507 27.5568C57.0736 27.985 56.4315 28.1991 55.4871 28.1991C54.5427 28.1991 53.8292 27.9704 53.425 27.4952Z"/>
        <path d="M60.2569 27.5245C59.8424 27.0758 59.6352 26.4217 59.6352 25.5565V22.5237C59.6352 21.6672 59.8424 21.019 60.2569 20.5791C60.6713 20.1391 61.3644 19.9201 62.3359 19.9221C63.3007 19.9221 63.9904 20.1411 64.4048 20.5791C64.8193 21.019 65.0299 21.6672 65.0299 22.5237V25.5565C65.0299 26.4129 64.8193 27.0699 64.398 27.5216C63.9768 27.9733 63.2906 28.1991 62.3359 28.1991C61.3813 28.1991 60.6747 27.9704 60.2569 27.5245ZM63.1003 26.7971C63.2487 26.516 63.3163 26.2081 63.2974 25.8996V22.1864C63.3164 21.8839 63.2499 21.5819 63.1037 21.3065C63.0205 21.2003 62.9043 21.1166 62.7686 21.0647C62.6328 21.0128 62.4829 20.995 62.3359 21.0132C62.1885 20.9954 62.0383 21.0135 61.9021 21.0653C61.7659 21.1171 61.6491 21.2006 61.5648 21.3065C61.4154 21.5811 61.3477 21.8835 61.3678 22.1864V25.9172C61.3471 26.2258 61.4148 26.5341 61.5648 26.8147C61.6604 26.9094 61.7785 26.9852 61.9109 27.0371C62.0433 27.0891 62.1871 27.116 62.3326 27.116C62.478 27.116 62.6218 27.0891 62.7542 27.0371C62.8866 26.9852 63.0047 26.9094 63.1003 26.8147V26.7971Z"/>
        <path d="M67.0035 20.0106H68.7701L70.0984 25.6062L71.4573 20.0106H73.1763L73.3496 28.0873H72.079L71.9431 22.474L70.6318 28.0873H69.6126L68.2537 22.4535L68.128 28.0873H66.8439L67.0035 20.0106Z"/>
        <path d="M75.3302 20.0106H78.0819C79.6673 20.0106 80.4599 20.775 80.4599 22.3039C80.4599 23.7684 79.6254 24.4996 77.9562 24.4976H77.0186V28.0873H75.32L75.3302 20.0106ZM77.6811 23.4624C77.8489 23.4808 78.0193 23.4675 78.1806 23.4234C78.3419 23.3794 78.4902 23.3056 78.6153 23.2072C78.8101 22.9344 78.896 22.6141 78.8599 22.2952C78.8688 22.0488 78.8414 21.8024 78.7783 21.562C78.7541 21.4817 78.7116 21.4063 78.6533 21.3404C78.5949 21.2744 78.522 21.2191 78.4386 21.1778C78.2028 21.0801 77.9422 21.0357 77.6811 21.0487H77.022V23.4624H77.6811Z"/>
        <path d="M82.9094 20.0106H84.7337L86.6055 28.0873H85.0225L84.6522 26.225H83.0249L82.6444 28.0873H81.0376L82.9094 20.0106ZM84.4687 25.2895L83.8334 21.8992L83.1982 25.2895H84.4687Z"/>
        <path d="M88.1173 20.0106H89.3063L91.5825 24.6179V20.0106H92.9923V28.0873H91.861L89.5713 23.2776V28.0873H88.1139L88.1173 20.0106Z"/>
        <path d="M96.2945 25.0077L94.4022 20.0219H95.9955L97.1506 23.2245L98.2343 20.0219H99.7936L97.9251 25.0077V28.0872H96.2945V25.0077Z"/>
        <path d="M56.0477 31.6185V32.0409H54.6617V35.3228H54.0807V32.0409H52.6879V31.6185H56.0477Z"/>
        <path d="M60.3927 35.3231H59.9442C59.8987 35.3256 59.8538 35.313 59.8185 35.2879C59.7846 35.2664 59.7587 35.2369 59.7438 35.2029L59.3429 34.323H57.4201L57.0192 35.2029C57.0078 35.2397 56.9869 35.2738 56.958 35.3026C56.9225 35.3271 56.8778 35.3397 56.8324 35.3378H56.3839L58.0825 31.6337H58.6737L60.3927 35.3231ZM57.5797 33.9476H59.1833L58.5038 32.4402C58.4537 32.3262 58.4117 32.2096 58.3781 32.0912C58.3543 32.1616 58.3339 32.229 58.3136 32.2877L58.2524 32.4431L57.5797 33.9476Z"/>
        <path d="M63.3211 34.9593C63.4275 34.9641 63.5341 34.9641 63.6404 34.9593C63.7323 34.9511 63.8232 34.9364 63.9122 34.9153C63.9954 34.8977 64.0772 34.8751 64.1568 34.8478C64.2316 34.8214 64.3063 34.7891 64.3844 34.7569V33.9239H63.705C63.6882 33.9247 63.6714 33.9225 63.6556 33.9174C63.6398 33.9124 63.6254 33.9046 63.6133 33.8945C63.6021 33.8862 63.5933 33.8758 63.5874 33.8641C63.5815 33.8524 63.5787 33.8398 63.5793 33.8271V33.5425H64.8974V34.9622C64.7898 35.0287 64.6762 35.0875 64.5577 35.1382C64.4366 35.1898 64.3104 35.232 64.1806 35.2643C64.0417 35.2996 63.8996 35.3251 63.7559 35.3406C63.5912 35.3564 63.4257 35.3642 63.26 35.3641C62.967 35.3662 62.6763 35.3194 62.4038 35.2262C62.1495 35.1379 61.9184 35.0062 61.7244 34.839C61.5353 34.6701 61.3864 34.4708 61.2862 34.2524C61.1791 34.0068 61.1261 33.7462 61.1299 33.4839C61.1263 33.2199 61.1781 32.9576 61.2828 32.7095C61.3805 32.49 61.5297 32.2903 61.721 32.1229C61.9149 31.9562 62.1461 31.8255 62.4005 31.7386C62.6914 31.6441 63.0001 31.5974 63.3109 31.6008C63.4691 31.6006 63.627 31.6114 63.7831 31.633C63.9212 31.6524 64.0567 31.6839 64.1874 31.7269C64.3062 31.7654 64.4201 31.8146 64.5271 31.8735C64.6312 31.9314 64.7301 31.9962 64.8227 32.0671L64.6596 32.2959C64.6468 32.3168 64.6278 32.3344 64.6045 32.3468C64.5812 32.3591 64.5545 32.3659 64.5271 32.3663C64.4895 32.3653 64.453 32.3551 64.4218 32.337C64.3708 32.3135 64.3165 32.2842 64.2553 32.249C64.1831 32.2099 64.1069 32.1765 64.0277 32.1493C63.9265 32.1142 63.8219 32.0867 63.7152 32.0671C63.5729 32.0445 63.4284 32.0337 63.2837 32.0349C63.0596 32.0327 62.8371 32.0676 62.6281 32.1375C62.439 32.203 62.2686 32.3031 62.1287 32.4309C61.9879 32.564 61.8803 32.7208 61.8127 32.8914C61.661 33.2926 61.661 33.725 61.8127 34.1262C61.8871 34.3005 62.0028 34.4593 62.1525 34.5926C62.2918 34.7197 62.4609 34.8197 62.6485 34.8859C62.8645 34.95 63.0934 34.9749 63.3211 34.9593Z"/>
        <path d="M68.7362 34.9005H70.5911V35.3228H68.1689V31.6185H68.7498L68.7362 34.9005Z"/>
        <path d="M72.5208 35.3228H71.9398V31.6185H72.5208V35.3228Z" />
        <path d="M74.6814 31.6361C74.7159 31.6531 74.746 31.6761 74.7697 31.7036L77.253 34.4959C77.2497 34.452 77.2497 34.4079 77.253 34.3639C77.253 34.3229 77.253 34.2818 77.253 34.2437V31.6039H77.7592V35.3231H77.4671C77.4238 35.3261 77.3804 35.319 77.3414 35.3025C77.3061 35.2841 77.275 35.2602 77.2496 35.2321L74.7697 32.4428C74.7697 32.4867 74.7697 32.5278 74.7697 32.5689C74.7697 32.6099 74.7697 32.6481 74.7697 32.6833V35.3231H74.2839V31.6185H74.5863C74.6191 31.6186 74.6515 31.6246 74.6814 31.6361Z" />
        <path d="M82.0364 31.6185V32.0262H79.9777V33.2493H81.6457V33.6423H79.9777V34.9064H82.0364V35.3141H79.3798V31.6185H82.0364Z"/>
        <path d="M21.1617 8.74242L46.9568 15.0657V37.2237L21.1617 30.9033V8.74242ZM19.5073 6.85364V31.9797L48.6079 39.1154V13.9923L19.5073 6.85364Z"/>
        <path d="M35.1039 50.7791L6 43.6375V18.514L35.1039 25.6528V50.7791Z"/>
        <path d="M19.9897 8.4579L45.4484 14.7019L34.6215 24.0518L9.1594 17.8049L19.9897 8.4579ZM19.5073 6.85364L6 18.5146L35.1039 25.6531L48.6078 13.9922L19.5073 6.85364Z"/>
        <path d="M36.7414 49.3657L48.6078 39.1185L36.7414 36.2062V49.3657Z"/>
    </symbol>
    

<symbol id="icon-close-modal" viewBox="0 0 11 11">
<path d="M11 1.10786L9.89214 0L5.5 4.39214L1.10786 0L0 1.10786L4.39214 5.5L0 9.89214L1.10786 11L5.5 6.60786L9.89214 11L11 9.89214L6.60786 5.5L11 1.10786Z"/>
    </symbol>

<symbol id="input-icon-name" viewBox="0 0 12 12">
<path d="M6 6C7.6575 6 9 4.6575 9 3C9 1.3425 7.6575 0 6 0C4.3425 0 3 1.3425 3 3C3 4.6575 4.3425 6 6 6ZM6 7.5C3.9975 7.5 0 8.505 0 10.5V11.25C0 11.6625 0.3375 12 0.75 12H11.25C11.6625 12 12 11.6625 12 11.25V10.5C12 8.505 8.0025 7.5 6 7.5Z"/>
</symbol>

<symbol id="input-icon-phone" viewBox="0 0 14 14">
<path d="M11.996 9.12256L10.1579 8.91269C9.71641 8.86203 9.28221 9.01401 8.97102 9.32519L7.63945 10.6568C5.59144 9.61466 3.91251 7.94296 2.87041 5.8877L4.20922 4.54888C4.5204 4.2377 4.67237 3.80349 4.62171 3.36205L4.41185 1.53836C4.325 0.807445 3.70988 0.257446 2.97173 0.257446H1.71976C0.902004 0.257446 0.221746 0.937708 0.272403 1.75547C0.655953 7.93572 5.59868 12.8712 11.7717 13.2548C12.5894 13.3054 13.2697 12.6252 13.2697 11.8074V10.5555C13.2769 9.82453 12.7269 9.2094 11.996 9.12256V9.12256Z"/>
</symbol>

<symbol id="input-icon-mail" viewBox="0 0 16 12">
<path d="M14 0H2C1.175 0 0.5075 0.675 0.5075 1.5L0.5 10.5C0.5 11.325 1.175 12 2 12H14C14.825 12 15.5 11.325 15.5 10.5V1.5C15.5 0.675 14.825 0 14 0ZM13.7 3.1875L8.3975 6.5025C8.1575 6.6525 7.8425 6.6525 7.6025 6.5025L2.3 3.1875C2.1125 3.0675 2 2.865 2 2.6475C2 2.145 2.5475 1.845 2.975 2.1075L8 5.25L13.025 2.1075C13.4525 1.845 14 2.145 14 2.6475C14 2.865 13.8875 3.0675 13.7 3.1875Z"/>
</symbol>

<symbol id="input-icon-suscribe" viewBox="0 0 24 24">
<path d="M24 -0.00012207L0 13.4999L7.66994 16.3406L19.5 5.24988L10.5017 17.3894L10.509 17.3921L10.5 17.3894V23.9999L14.8013 18.9818L20.2501 20.9999L24 -0.00012207Z" fill="white"/>
</symbol>
    </defs>
</svg>